<svg xmlns="http://www.w3.org/2000/svg" viewBox="0 0 256 256" role="img" aria-label="School logo">
  <defs>
    <linearGradient id="pinkRing" x1="0" y1="0" x2="1" y2="1">
      <stop offset="0%" stop-color="#ef476f"/>
      <stop offset="100%" stop-color="#d81b60"/>
    </linearGradient>
    <linearGradient id="blueText" x1="0" y1="0" x2="1" y2="1">
      <stop offset="0%" stop-color="#1e3a8a"/>
      <stop offset="100%" stop-color="#1d4ed8"/>
    </linearGradient>
  </defs>

  <circle cx="128" cy="112" r="92" fill="white" stroke="url(#pinkRing)" stroke-width="8"/>
  <path d="M128 34c-34 18-58 47-58 81 0 29 14 49 32 61-21-2-39-14-50-32-11-18-15-43-8-66 10-34 40-60 84-74 44 14 74 40 84 74 7 23 3 48-8 66-11 18-29 30-50 32 18-12 32-32 32-61 0-34-24-63-58-81Z" fill="none" stroke="url(#pinkRing)" stroke-width="10" stroke-linecap="round" stroke-linejoin="round"/>
  <path d="M128 64c-23 14-38 32-38 55 0 21 11 37 25 47-17-1-32-11-40-25-9-15-11-35-5-53 7-23 27-41 58-52 31 11 51 29 58 52 6 18 4 38-5 53-8 14-23 24-40 25 14-10 25-26 25-47 0-23-15-41-38-55Z" fill="#fce4ec" stroke="url(#pinkRing)" stroke-width="6" stroke-linecap="round" stroke-linejoin="round"/>
  <path d="M128 82l31 24v33c0 22-15 39-31 46-16-7-31-24-31-46v-33l31-24Z" fill="white" stroke="url(#pinkRing)" stroke-width="5" stroke-linejoin="round"/>
  <path d="M128 92l20 15v27c0 13-8 23-20 29-12-6-20-16-20-29v-27l20-15Z" fill="#fff5f7" stroke="#e11d48" stroke-width="3"/>
  <path d="M110 130h36" stroke="#e11d48" stroke-width="4" stroke-linecap="round"/>
  <path d="M116 120c6-10 18-11 24 0" fill="none" stroke="#e11d48" stroke-width="4" stroke-linecap="round"/>
  <path d="M123 114c0-5 3-9 7-9s7 4 7 9c0 5-3 8-7 8s-7-3-7-8Z" fill="none" stroke="#e11d48" stroke-width="3"/>
  <path d="M80 108c-7 4-10 11-10 18s3 14 10 18" fill="none" stroke="#e11d48" stroke-width="4" stroke-linecap="round"/>
  <path d="M176 108c7 4 10 11 10 18s-3 14-10 18" fill="none" stroke="#e11d48" stroke-width="4" stroke-linecap="round"/>

  <path d="M26 183c26 36 78 51 140 45 28-3 50-10 68-22" fill="none"/>
  <path id="curve" d="M28 182c23 34 74 49 133 44 30-3 50-10 67-21" fill="none"/>
  <text font-family="Sarabun, Tahoma, sans-serif" font-size="18" font-weight="700" fill="url(#blueText)">
    <textPath href="#curve" startOffset="50%" text-anchor="middle">โรงเรียนโสตศึกษาจังหวัดสงขลา</textPath>
  </text>
</svg>